<?xml version="1.0" standalone="no"?>
<!DOCTYPE svg PUBLIC "-//W3C//DTD SVG 20010904//EN"
 "http://www.w3.org/TR/2001/REC-SVG-20010904/DTD/svg10.dtd">
<svg version="1.0" xmlns="http://www.w3.org/2000/svg"
 width="682.000000pt" height="682.000000pt" viewBox="0 0 682.000000 682.000000"
 preserveAspectRatio="xMidYMid meet">
<metadata>
Created by potrace 1.11, written by Peter Selinger 2001-2013
</metadata>
<g transform="translate(0.000000,682.000000) scale(0.100000,-0.100000)"
fill="#000000" stroke="none">
<path d="M3356 6781 c-48 -29 -49 -40 -48 -569 l1 -496 -28 -51 c-16 -27 -55
-97 -88 -155 -32 -58 -65 -121 -73 -140 -7 -19 -17 -40 -22 -46 -19 -26 -49
-133 -49 -179 0 -131 39 -192 266 -416 l90 -89 128 127 c183 182 227 251 233
366 5 104 -36 200 -199 469 l-65 108 0 504 c0 470 -1 507 -18 535 -27 46 -82
60 -128 32z m64 -1272 c0 -6 10 -25 23 -42 87 -124 147 -262 147 -343 0 -65
-37 -122 -122 -193 l-62 -50 -30 17 c-49 27 -116 94 -139 137 -28 56 -27 143
3 215 22 51 96 179 111 190 3 3 12 16 19 29 23 44 50 66 50 40z"/>
<path d="M2626 6165 c-62 -33 -58 39 -58 -1100 0 -883 -1 -869 70 -941 69 -70
268 -175 477 -253 33 -13 76 -29 95 -36 19 -8 46 -16 60 -19 l25 -5 3 172 c2
95 5 210 6 257 5 203 -19 246 -276 499 -209 206 -241 250 -254 346 -4 28 -8
273 -8 545 -1 272 -6 503 -10 512 -4 10 -24 22 -44 28 -48 13 -52 13 -86 -5z
m185 -1523 c14 -9 45 -30 69 -47 24 -16 50 -34 59 -40 8 -5 41 -36 74 -68 56
-56 95 -124 102 -177 4 -29 7 -123 5 -130 -1 -3 -2 -26 -3 -52 -1 -25 -5 -49
-8 -52 -6 -6 -132 45 -210 84 -58 30 -104 83 -120 137 -16 59 -16 364 0 362 3
0 18 -8 32 -17z"/>
<path d="M4059 6153 l-26 -22 -1 -498 c0 -274 -3 -520 -6 -547 -10 -92 -37
-129 -250 -341 -260 -259 -285 -303 -280 -500 1 -44 3 -155 5 -248 2 -92 6
-172 9 -177 7 -12 187 51 338 118 204 91 314 167 354 246 28 53 29 92 29 866
1 917 -1 1049 -13 1075 -13 29 -66 56 -104 53 -15 -2 -40 -13 -55 -25z m-29
-1565 c15 -340 -6 -381 -244 -479 -59 -25 -93 -34 -97 -27 -4 6 -6 30 -5 54 0
24 -2 44 -5 44 -6 0 -3 56 6 123 8 64 42 125 102 186 59 58 221 174 233 166 4
-2 8 -33 10 -67z"/>
<path d="M510 4467 c0 -6 39 -120 49 -142 87 -202 184 -349 326 -490 61 -60
119 -116 128 -123 68 -52 200 -132 292 -177 104 -50 320 -129 389 -141 17 -2
47 -9 66 -14 46 -12 286 -60 330 -66 19 -2 51 -9 70 -14 19 -5 51 -12 71 -14
19 -3 46 -7 59 -10 14 -3 36 -8 50 -10 426 -80 735 -180 904 -294 l45 -31 1
152 c2 306 0 337 -27 416 -45 132 -156 232 -357 320 -148 65 -387 129 -581
154 -22 3 -69 10 -105 16 -75 11 -146 20 -210 27 -25 3 -56 7 -70 9 -14 3 -50
7 -80 10 -30 3 -65 8 -77 10 -12 3 -41 7 -65 10 -43 6 -190 30 -238 40 -14 3
-41 8 -60 11 -19 3 -62 12 -95 19 -33 8 -71 16 -85 19 -218 42 -524 167 -657
267 -60 46 -73 54 -73 46z m640 -511 c63 -19 147 -41 185 -50 157 -37 242 -56
283 -61 40 -6 80 -13 112 -19 37 -7 200 -35 240 -40 19 -3 53 -8 75 -11 22 -3
65 -10 95 -15 30 -5 73 -12 95 -15 22 -3 51 -7 65 -10 22 -5 43 -8 125 -20 85
-12 268 -56 360 -86 56 -19 144 -57 155 -69 3 -3 22 -18 44 -34 49 -37 91
-104 117 -185 10 -35 18 -66 16 -68 -2 -2 -24 4 -48 13 -24 9 -48 17 -54 18
-5 2 -17 5 -25 9 -35 13 -122 37 -220 61 -104 26 -127 31 -185 42 -16 3 -50
10 -75 15 -25 6 -58 13 -74 16 -16 2 -59 11 -95 19 -36 8 -82 17 -101 20 -19
2 -42 7 -50 9 -8 2 -28 7 -45 9 -16 3 -59 12 -95 20 -36 8 -97 21 -135 29
-264 58 -518 150 -639 232 -20 14 -39 25 -43 25 -9 0 -132 99 -182 147 -25 24
-39 41 -31 39 8 -3 67 -21 130 -40z"/>
<path d="M6256 4454 c-51 -50 -219 -143 -346 -191 -30 -12 -64 -25 -75 -29
-23 -9 -16 -6 -86 -28 -31 -9 -66 -18 -78 -21 -11 -2 -25 -6 -29 -9 -5 -3 -19
-7 -33 -10 -13 -3 -58 -12 -99 -22 -41 -9 -84 -18 -95 -19 -11 -2 -45 -9 -75
-15 -30 -6 -71 -13 -90 -16 -19 -3 -42 -7 -50 -9 -8 -2 -37 -7 -65 -11 -27 -3
-58 -8 -69 -10 -10 -2 -44 -6 -75 -10 -31 -3 -58 -8 -61 -9 -5 -3 -104 -15
-165 -21 -16 -1 -30 -3 -30 -4 0 -2 -68 -10 -120 -15 -22 -2 -40 -4 -40 -5 0
-2 -25 -7 -80 -14 -27 -3 -61 -8 -75 -11 -14 -3 -38 -8 -55 -10 -122 -16 -331
-74 -455 -125 -140 -58 -259 -143 -332 -237 -17 -23 -60 -113 -53 -113 3 0 -1
-12 -7 -27 -7 -18 -11 -118 -12 -274 l-1 -247 51 33 c91 58 228 120 354 160
86 28 380 101 437 110 52 7 81 13 103 20 10 3 33 8 51 10 19 2 115 21 214 40
99 20 191 38 205 41 14 2 36 7 50 10 50 12 65 15 90 20 129 25 325 96 471 170
344 175 590 456 728 832 30 80 29 98 -3 66z m-526 -511 c-193 -177 -481 -312
-803 -378 -10 -2 -26 -6 -35 -9 -9 -3 -28 -7 -42 -10 -14 -3 -92 -19 -175 -36
-167 -35 -164 -34 -220 -45 -22 -4 -51 -9 -65 -12 -13 -2 -56 -11 -95 -19 -38
-9 -81 -18 -95 -20 -14 -3 -45 -10 -70 -15 -25 -6 -56 -13 -70 -15 -43 -8
-171 -45 -277 -80 -113 -38 -117 -38 -108 -24 3 5 8 20 10 31 15 76 58 153
117 208 57 53 182 109 333 147 17 4 32 8 35 9 6 1 64 13 95 19 135 26 225 41
305 51 19 2 46 7 60 10 14 3 41 7 60 10 19 3 46 7 59 10 14 2 47 7 75 11 71 9
91 12 91 14 0 1 9 3 20 4 23 3 115 18 130 22 6 1 28 5 50 8 22 4 47 8 55 11 8
2 31 6 50 9 115 19 404 90 485 120 74 27 80 19 25 -31z"/>
<path d="M733 3735 c3 -11 9 -40 12 -65 11 -68 12 -72 35 -151 68 -232 224
-463 415 -614 28 -22 52 -43 53 -47 2 -5 8 -8 12 -8 5 0 38 -20 74 -45 36 -25
66 -42 66 -38 0 3 8 -1 18 -9 29 -25 262 -124 262 -111 0 3 6 1 13 -4 10 -9
73 -33 100 -39 4 -1 9 -3 12 -4 3 -1 8 -3 13 -4 4 -2 34 -11 67 -21 33 -11 62
-20 65 -20 3 -1 25 -7 50 -14 57 -17 53 -16 195 -46 133 -29 150 -33 150 -35
0 -1 10 -3 22 -6 103 -19 209 -89 244 -161 22 -45 23 -61 25 -251 1 -112 4
-206 7 -208 6 -6 619 -6 625 1 7 7 5 640 -3 720 -20 208 -134 349 -340 420
-27 9 -57 21 -66 25 -21 11 -339 90 -386 96 -19 2 -39 6 -43 9 -4 2 -26 7 -50
10 -23 3 -46 7 -50 10 -4 3 -23 7 -41 9 -19 3 -68 12 -109 21 -41 9 -86 19
-100 21 -178 34 -426 95 -570 139 -47 15 -89 27 -95 29 -5 1 -14 4 -20 8 -5 3
-26 9 -45 13 -19 4 -39 11 -45 15 -5 4 -28 13 -50 20 -143 46 -315 154 -443
277 -83 79 -86 82 -79 58z m577 -572 c121 -46 304 -101 426 -128 69 -15 436
-91 484 -100 49 -9 72 -14 88 -19 9 -3 34 -7 56 -11 21 -3 42 -7 46 -10 4 -3
23 -7 41 -10 44 -6 305 -62 344 -73 107 -32 201 -110 244 -202 14 -30 26 -57
26 -60 18 -99 30 -507 15 -511 -3 -1 -60 -3 -127 -4 l-123 -2 0 86 c-1 147
-11 234 -32 284 -41 96 -140 152 -383 217 -129 34 -309 82 -325 85 -8 2 -15 4
-15 5 0 1 -7 3 -15 5 -24 4 -101 26 -145 40 -22 6 -60 18 -85 25 -83 24 -254
93 -330 133 -150 79 -259 171 -337 284 l-22 32 52 -20 c29 -12 81 -32 117 -46z"/>
<path d="M5970 3677 c-170 -165 -317 -244 -640 -345 -148 -46 -304 -88 -440
-117 -8 -2 -35 -8 -60 -14 -25 -5 -56 -12 -70 -14 -14 -3 -95 -19 -180 -37
-85 -17 -164 -34 -175 -36 -11 -2 -45 -9 -75 -15 -30 -7 -64 -13 -75 -15 -82
-11 -352 -88 -430 -122 -150 -65 -264 -182 -289 -298 -4 -16 -9 -40 -12 -54
-9 -37 -15 -780 -7 -781 35 -4 623 -3 624 1 1 3 3 88 4 190 1 102 7 208 14
235 28 118 140 180 431 240 69 14 143 31 165 37 22 5 45 11 50 13 6 1 17 5 25
8 36 13 87 29 107 33 12 2 35 9 50 16 16 6 33 12 38 13 117 29 338 131 465
216 88 59 264 221 305 283 11 15 25 33 30 40 25 28 113 180 120 206 1 3 7 19
14 35 25 58 60 165 66 202 4 21 8 47 10 58 9 47 15 95 13 95 -2 0 -37 -33 -78
-73z m-366 -505 c-26 -34 -120 -130 -157 -159 -81 -65 -255 -151 -417 -208
-85 -29 -309 -96 -370 -110 -8 -2 -51 -13 -95 -25 -44 -12 -88 -23 -97 -26
-47 -11 -65 -15 -86 -20 -50 -10 -209 -66 -258 -90 -55 -27 -124 -84 -124
-103 0 -6 -4 -11 -9 -11 -5 0 -12 -15 -15 -32 -3 -18 -8 -44 -11 -58 -4 -20
-11 -151 -14 -275 -1 -20 -7 -21 -126 -21 -79 0 -125 4 -126 11 -4 44 1 407 6
435 24 142 94 242 208 298 56 28 199 67 317 87 19 3 64 13 100 21 36 8 81 17
100 20 19 3 55 10 80 16 25 5 56 12 70 14 14 3 45 10 70 15 42 10 58 13 113
23 12 2 33 7 47 10 14 3 36 8 50 10 50 9 175 37 254 57 45 12 88 23 96 25 93
22 387 128 405 145 23 23 15 -14 -11 -49z"/>
<path d="M1618 1169 c-200 -31 -346 -131 -420 -289 -48 -102 -60 -162 -60
-300 0 -112 14 -180 57 -265 74 -150 198 -235 394 -270 125 -22 399 -2 402 29
2 21 -2 170 -5 173 -1 2 -25 -4 -52 -12 -131 -39 -287 -32 -376 16 -127 69
-190 196 -184 369 6 186 98 318 254 365 53 16 235 15 267 -2 48 -25 75 -36 80
-32 2 3 7 34 10 69 4 36 8 75 10 87 3 22 -13 32 -80 49 -16 4 -37 9 -45 11
-29 8 -206 9 -252 2z"/>
<path d="M2618 1174 c-2 -2 -22 -5 -43 -8 -22 -2 -40 -5 -40 -6 0 -1 -13 -4
-30 -6 -16 -3 -64 -21 -105 -41 -183 -88 -291 -273 -293 -503 -2 -232 58 -367
211 -473 152 -104 401 -132 657 -72 11 3 36 8 55 13 l35 8 3 300 2 300 -222 0
-223 -1 -1 -87 -1 -88 116 0 117 0 -1 -142 0 -142 -30 -8 c-38 -10 -138 -12
-190 -3 -177 29 -295 184 -296 390 -2 185 100 328 269 378 95 29 302 13 384
-29 26 -13 28 -13 32 8 3 13 7 55 10 95 4 76 2 79 -49 89 -5 1 -37 7 -70 14
-53 11 -289 22 -297 14z"/>
<path d="M3288 1147 c-3 -6 -4 -255 -4 -552 l1 -540 111 -3 111 -3 -1 553 -1
553 -106 2 c-78 2 -108 -1 -111 -10z"/>
<path d="M4029 1078 c-19 -46 -34 -85 -35 -88 0 -3 -4 -14 -9 -25 -4 -11 -33
-83 -63 -160 -48 -124 -276 -709 -289 -743 -4 -10 20 -12 113 -10 l118 3 16
45 c9 25 20 52 23 60 3 8 16 42 28 75 12 33 25 62 30 65 6 4 420 5 440 1 4 0
21 -40 38 -88 18 -49 39 -104 46 -123 l13 -35 121 -3 c93 -2 121 0 121 10 0
11 -25 77 -61 163 -4 11 -33 83 -63 160 -117 302 -148 381 -156 400 -5 11 -40
99 -77 195 l-69 175 -126 3 -126 2 -33 -82z m179 -215 c11 -32 35 -98 52 -148
17 -49 36 -102 42 -117 5 -15 9 -28 9 -30 -1 -2 5 -20 13 -40 9 -21 16 -40 16
-42 0 -6 -302 -6 -312 0 -4 3 -3 13 2 22 5 9 28 71 50 137 23 66 52 149 66
185 13 36 24 71 24 78 0 30 19 7 38 -45z"/>
<path d="M4870 605 l0 -555 109 0 c95 0 109 2 113 18 2 9 3 113 3 230 l-1 212
55 0 c107 0 133 -23 185 -160 16 -41 34 -88 41 -105 7 -16 18 -46 25 -65 7
-19 22 -56 33 -82 l21 -48 123 0 123 0 -21 52 c-11 29 -27 69 -36 88 -24 55
-29 69 -73 175 -57 140 -79 182 -112 210 -15 13 -28 26 -28 28 0 2 18 9 41 16
48 14 108 70 136 126 32 61 30 183 -4 253 -37 78 -114 129 -223 149 -14 2
-134 6 -267 9 l-243 4 0 -555z m390 370 c98 -15 140 -62 136 -152 -5 -95 -73
-133 -246 -137 l-55 -1 -1 147 c-1 127 1 148 15 150 23 5 98 1 151 -7z"/>
</g>
</svg>
